<svg xmlns="http://www.w3.org/2000/svg" width="1400" height="820" viewBox="0 0 1400 820" role="img" aria-label="Global EV Market Intelligence Dashboard preview">
  <defs>
    <linearGradient id="bg" x1="0" y1="0" x2="1" y2="1">
      <stop offset="0" stop-color="#070B10"/>
      <stop offset="1" stop-color="#101827"/>
    </linearGradient>
    <linearGradient id="cyan" x1="0" y1="0" x2="1" y2="0">
      <stop offset="0" stop-color="#00E5FF"/>
      <stop offset="1" stop-color="#34D399"/>
    </linearGradient>
    <filter id="glow" x="-20%" y="-20%" width="140%" height="140%">
      <feGaussianBlur stdDeviation="5" result="coloredBlur"/>
      <feMerge>
        <feMergeNode in="coloredBlur"/>
        <feMergeNode in="SourceGraphic"/>
      </feMerge>
    </filter>
  </defs>
  <rect width="1400" height="820" fill="url(#bg)"/>
  <rect x="34" y="28" width="1332" height="764" rx="18" fill="#0B0F14" stroke="#1F2937"/>
  <text x="72" y="76" fill="#F8FAFC" font-family="Segoe UI, Arial, sans-serif" font-size="31" font-weight="700">Global EV Market Intelligence Dashboard</text>
  <text x="72" y="105" fill="#94A3B8" font-family="Segoe UI, Arial, sans-serif" font-size="15">Executive view of adoption, growth, manufacturers, battery technology, and charging readiness</text>
  <rect x="1030" y="52" width="278" height="38" rx="19" fill="#111827" stroke="#263244"/>
  <text x="1054" y="77" fill="#00E5FF" font-family="Segoe UI, Arial, sans-serif" font-size="14" font-weight="600">2024 Actuals + 2030 Forecast Lens</text>

  <g font-family="Segoe UI, Arial, sans-serif">
    <g>
      <rect x="72" y="134" width="190" height="96" rx="10" fill="#151C26" stroke="#243244"/>
      <text x="92" y="164" fill="#94A3B8" font-size="13">Total EV Sales</text>
      <text x="92" y="198" fill="#F8FAFC" font-size="30" font-weight="700">17.1M</text>
      <text x="184" y="199" fill="#34D399" font-size="13">+22.4%</text>
    </g>
    <g>
      <rect x="282" y="134" width="190" height="96" rx="10" fill="#151C26" stroke="#243244"/>
      <text x="302" y="164" fill="#94A3B8" font-size="13">Market Growth</text>
      <text x="302" y="198" fill="#34D399" font-size="30" font-weight="700">24.8%</text>
      <text x="392" y="199" fill="#94A3B8" font-size="13">YoY</text>
    </g>
    <g>
      <rect x="492" y="134" width="190" height="96" rx="10" fill="#151C26" stroke="#243244"/>
      <text x="512" y="164" fill="#94A3B8" font-size="13">Top Manufacturer</text>
      <text x="512" y="198" fill="#F8FAFC" font-size="28" font-weight="700">BYD</text>
      <text x="570" y="199" fill="#00E5FF" font-size="13">Rank 1</text>
    </g>
    <g>
      <rect x="702" y="134" width="190" height="96" rx="10" fill="#151C26" stroke="#243244"/>
      <text x="722" y="164" fill="#94A3B8" font-size="13">Top Country</text>
      <text x="722" y="198" fill="#F8FAFC" font-size="28" font-weight="700">China</text>
      <text x="790" y="199" fill="#00E5FF" font-size="13">Largest market</text>
    </g>
    <g>
      <rect x="912" y="134" width="190" height="96" rx="10" fill="#151C26" stroke="#243244"/>
      <text x="932" y="164" fill="#94A3B8" font-size="13">Average EV Price</text>
      <text x="932" y="198" fill="#F8FAFC" font-size="30" font-weight="700">$42.6K</text>
    </g>
    <g>
      <rect x="1122" y="134" width="190" height="96" rx="10" fill="#151C26" stroke="#243244"/>
      <text x="1142" y="164" fill="#94A3B8" font-size="13">Charging Coverage</text>
      <text x="1142" y="198" fill="#F8FAFC" font-size="30" font-weight="700">31.4</text>
      <text x="1213" y="199" fill="#94A3B8" font-size="13">per 1k EVs</text>
    </g>
  </g>

  <g>
    <rect x="72" y="258" width="550" height="304" rx="12" fill="#111827" stroke="#263244"/>
    <text x="96" y="294" fill="#F8FAFC" font-family="Segoe UI, Arial, sans-serif" font-size="18" font-weight="700">Global EV Adoption</text>
    <path d="M151 397 C210 355 271 365 310 402 C351 440 424 411 480 430 C532 449 564 491 525 517 C477 548 386 532 332 512 C270 489 207 519 161 489 C121 463 111 425 151 397Z" fill="#172638" stroke="#314256"/>
    <path d="M204 356 C266 327 347 324 401 355 C448 382 513 359 552 392 C580 416 562 450 523 455 C455 464 392 430 331 448 C274 465 201 435 181 399 C171 381 181 367 204 356Z" fill="#20344B" stroke="#3B536E"/>
    <circle cx="463" cy="399" r="34" fill="#00E5FF" opacity="0.23" filter="url(#glow)"/>
    <circle cx="463" cy="399" r="8" fill="#00E5FF"/>
    <circle cx="246" cy="421" r="23" fill="#34D399" opacity="0.25" filter="url(#glow)"/>
    <circle cx="246" cy="421" r="6" fill="#34D399"/>
    <circle cx="392" cy="462" r="17" fill="#00E5FF" opacity="0.20"/>
    <circle cx="392" cy="462" r="5" fill="#00E5FF"/>
    <text x="96" y="534" fill="#94A3B8" font-family="Segoe UI, Arial, sans-serif" font-size="13">Bubble size = EV sales | Color = charging readiness</text>
  </g>

  <g>
    <rect x="650" y="258" width="316" height="304" rx="12" fill="#111827" stroke="#263244"/>
    <text x="674" y="294" fill="#F8FAFC" font-family="Segoe UI, Arial, sans-serif" font-size="18" font-weight="700">Sales Trend</text>
    <polyline points="690,500 730,484 770,462 810,424 850,372 890,330 930,302" fill="none" stroke="#00E5FF" stroke-width="4"/>
    <polyline points="690,522 730,514 770,498 810,470 850,438 890,410 930,380" fill="none" stroke="#34D399" stroke-width="4"/>
    <g stroke="#223047">
      <line x1="690" y1="520" x2="930" y2="520"/>
      <line x1="690" y1="460" x2="930" y2="460"/>
      <line x1="690" y1="400" x2="930" y2="400"/>
      <line x1="690" y1="340" x2="930" y2="340"/>
    </g>
    <text x="690" y="538" fill="#94A3B8" font-family="Segoe UI, Arial, sans-serif" font-size="12">2020</text>
    <text x="900" y="538" fill="#94A3B8" font-family="Segoe UI, Arial, sans-serif" font-size="12">2030</text>
  </g>

  <g>
    <rect x="994" y="258" width="318" height="304" rx="12" fill="#111827" stroke="#263244"/>
    <text x="1018" y="294" fill="#F8FAFC" font-family="Segoe UI, Arial, sans-serif" font-size="18" font-weight="700">Manufacturer Share</text>
    <rect x="1020" y="332" width="220" height="22" rx="6" fill="url(#cyan)"/>
    <rect x="1020" y="374" width="176" height="22" rx="6" fill="#00E5FF" opacity="0.78"/>
    <rect x="1020" y="416" width="143" height="22" rx="6" fill="#34D399" opacity="0.82"/>
    <rect x="1020" y="458" width="104" height="22" rx="6" fill="#F59E0B" opacity="0.85"/>
    <rect x="1020" y="500" width="82" height="22" rx="6" fill="#64748B"/>
    <text x="1254" y="349" fill="#F8FAFC" font-family="Segoe UI, Arial, sans-serif" font-size="13">BYD</text>
    <text x="1210" y="391" fill="#F8FAFC" font-family="Segoe UI, Arial, sans-serif" font-size="13">Tesla</text>
    <text x="1178" y="433" fill="#F8FAFC" font-family="Segoe UI, Arial, sans-serif" font-size="13">VW</text>
    <text x="1138" y="475" fill="#F8FAFC" font-family="Segoe UI, Arial, sans-serif" font-size="13">SAIC</text>
    <text x="1116" y="517" fill="#F8FAFC" font-family="Segoe UI, Arial, sans-serif" font-size="13">Other</text>
  </g>

  <g>
    <rect x="72" y="590" width="384" height="156" rx="12" fill="#111827" stroke="#263244"/>
    <text x="96" y="626" fill="#F8FAFC" font-family="Segoe UI, Arial, sans-serif" font-size="18" font-weight="700">Country Growth Leaders</text>
    <text x="96" y="666" fill="#94A3B8" font-family="Segoe UI, Arial, sans-serif" font-size="14">India</text>
    <rect x="172" y="653" width="210" height="18" rx="5" fill="#34D399"/>
    <text x="96" y="700" fill="#94A3B8" font-family="Segoe UI, Arial, sans-serif" font-size="14">Brazil</text>
    <rect x="172" y="687" width="168" height="18" rx="5" fill="#00E5FF"/>
    <text x="96" y="734" fill="#94A3B8" font-family="Segoe UI, Arial, sans-serif" font-size="14">Thailand</text>
    <rect x="172" y="721" width="136" height="18" rx="5" fill="#F59E0B"/>
  </g>

  <g>
    <rect x="484" y="590" width="384" height="156" rx="12" fill="#111827" stroke="#263244"/>
    <text x="508" y="626" fill="#F8FAFC" font-family="Segoe UI, Arial, sans-serif" font-size="18" font-weight="700">Charging Infrastructure</text>
    <circle cx="578" cy="683" r="43" fill="none" stroke="#00E5FF" stroke-width="14"/>
    <circle cx="578" cy="683" r="43" fill="none" stroke="#223047" stroke-width="14" stroke-dasharray="80 190"/>
    <text x="553" y="692" fill="#F8FAFC" font-family="Segoe UI, Arial, sans-serif" font-size="23" font-weight="700">74</text>
    <text x="652" y="674" fill="#94A3B8" font-family="Segoe UI, Arial, sans-serif" font-size="14">Readiness score</text>
    <text x="652" y="704" fill="#34D399" font-family="Segoe UI, Arial, sans-serif" font-size="15">Fast charging share improving</text>
  </g>

  <g>
    <rect x="896" y="590" width="416" height="156" rx="12" fill="#111827" stroke="#263244"/>
    <text x="920" y="626" fill="#F8FAFC" font-family="Segoe UI, Arial, sans-serif" font-size="18" font-weight="700">Executive Insight</text>
    <text x="920" y="664" fill="#CBD5E1" font-family="Segoe UI, Arial, sans-serif" font-size="15">EV demand is compounding faster than charging coverage in</text>
    <text x="920" y="690" fill="#CBD5E1" font-family="Segoe UI, Arial, sans-serif" font-size="15">several high-growth markets. Prioritize infrastructure-led</text>
    <text x="920" y="716" fill="#CBD5E1" font-family="Segoe UI, Arial, sans-serif" font-size="15">expansion where YoY growth and coverage gaps overlap.</text>
  </g>
</svg>
