<svg xmlns="http://www.w3.org/2000/svg" width="1400" height="820" viewBox="0 0 1400 820">
  <rect width="1400" height="820" fill="#0B0F14"/>
  <text x="70" y="82" fill="#F8FAFC" font-family="Segoe UI, Arial" font-size="36" font-weight="700">Global EV Market Intelligence Dashboard</text>
  <text x="70" y="116" fill="#94A3B8" font-family="Segoe UI, Arial" font-size="17">Executive overview of EV adoption, market growth, manufacturers, and charging readiness</text>
  <g font-family="Segoe UI, Arial">
    <rect x="70" y="150" width="190" height="94" rx="10" fill="#151C26" stroke="#263244"/><text x="92" y="180" fill="#94A3B8" font-size="13">Total EV Sales</text><text x="92" y="214" fill="#F8FAFC" font-size="30" font-weight="700">17.1M</text>
    <rect x="282" y="150" width="190" height="94" rx="10" fill="#151C26" stroke="#263244"/><text x="304" y="180" fill="#94A3B8" font-size="13">Market Growth</text><text x="304" y="214" fill="#34D399" font-size="30" font-weight="700">24.8%</text>
    <rect x="494" y="150" width="190" height="94" rx="10" fill="#151C26" stroke="#263244"/><text x="516" y="180" fill="#94A3B8" font-size="13">Top Manufacturer</text><text x="516" y="214" fill="#F8FAFC" font-size="30" font-weight="700">TESLA</text>
    <rect x="706" y="150" width="190" height="94" rx="10" fill="#151C26" stroke="#263244"/><text x="728" y="180" fill="#94A3B8" font-size="13">Top Country</text><text x="728" y="214" fill="#F8FAFC" font-size="30" font-weight="700">China</text>
    <rect x="918" y="150" width="190" height="94" rx="10" fill="#151C26" stroke="#263244"/><text x="940" y="180" fill="#94A3B8" font-size="13">Average EV Price</text><text x="940" y="214" fill="#F8FAFC" font-size="30" font-weight="700">$42.6K</text>
    <rect x="1130" y="150" width="190" height="94" rx="10" fill="#151C26" stroke="#263244"/><text x="1152" y="180" fill="#94A3B8" font-size="13">Charging Coverage</text><text x="1152" y="214" fill="#F8FAFC" font-size="30" font-weight="700">31.4</text>
  </g>
  <rect x="70" y="280" width="570" height="320" rx="12" fill="#111827" stroke="#263244"/>
  <text x="100" y="322" fill="#F8FAFC" font-family="Segoe UI, Arial" font-size="22" font-weight="700">Global Map of EV Adoption</text>
  <path d="M150 430 C245 360 340 390 395 438 C465 500 560 438 608 503 C535 565 395 545 310 512 C238 485 145 512 120 460 C108 438 124 423 150 430Z" fill="#1E3A56" stroke="#3B536E"/>
  <circle cx="470" cy="430" r="38" fill="#00E5FF" opacity=".24"/><circle cx="470" cy="430" r="8" fill="#00E5FF"/>
  <circle cx="270" cy="460" r="28" fill="#34D399" opacity=".28"/><circle cx="270" cy="460" r="7" fill="#34D399"/>
  <rect x="680" y="280" width="310" height="320" rx="12" fill="#111827" stroke="#263244"/>
  <text x="710" y="322" fill="#F8FAFC" font-family="Segoe UI, Arial" font-size="22" font-weight="700">EV Sales Trend</text>
  <polyline points="720,530 760,510 805,472 850,420 895,365 940,310" fill="none" stroke="#00E5FF" stroke-width="5"/>
  <polyline points="720,555 760,542 805,515 850,475 895,445 940,405" fill="none" stroke="#34D399" stroke-width="5"/>
  <rect x="1030" y="280" width="290" height="320" rx="12" fill="#111827" stroke="#263244"/>
  <text x="1060" y="322" fill="#F8FAFC" font-family="Segoe UI, Arial" font-size="22" font-weight="700">Market Share</text>
  <rect x="1060" y="365" width="210" height="24" rx="6" fill="#00E5FF"/><rect x="1060" y="420" width="168" height="24" rx="6" fill="#34D399"/><rect x="1060" y="475" width="118" height="24" rx="6" fill="#F59E0B"/>
  <rect x="70" y="635" width="1250" height="100" rx="12" fill="#111827" stroke="#263244"/>
  <text x="100" y="675" fill="#F8FAFC" font-family="Segoe UI, Arial" font-size="22" font-weight="700">Executive Insight</text>
  <text x="100" y="707" fill="#CBD5E1" font-family="Segoe UI, Arial" font-size="17">EV demand is compounding faster than charging coverage in several high-growth markets.</text>
</svg>
