<svg xmlns="http://www.w3.org/2000/svg" width="1400" height="820" viewBox="0 0 1400 820">
  <rect width="1400" height="820" fill="#0B0F14"/><text x="70" y="86" fill="#F8FAFC" font-family="Segoe UI, Arial" font-size="36" font-weight="700">Market Growth Intelligence</text><text x="70" y="120" fill="#94A3B8" font-family="Segoe UI, Arial" font-size="17">Country-wise YoY growth, CAGR, and adoption acceleration</text>
  <rect x="70" y="160" width="580" height="560" rx="12" fill="#111827" stroke="#263244"/><text x="100" y="205" fill="#F8FAFC" font-family="Segoe UI, Arial" font-size="24" font-weight="700">Country Growth Heatmap</text>
  <g transform="translate(110 250)"><rect width="80" height="80" fill="#064E3B"/><rect x="95" width="80" height="80" fill="#10B981"/><rect x="190" width="80" height="80" fill="#00E5FF"/><rect x="285" width="80" height="80" fill="#34D399"/><rect y="95" width="80" height="80" fill="#1D4ED8"/><rect x="95" y="95" width="80" height="80" fill="#F59E0B"/><rect x="190" y="95" width="80" height="80" fill="#14B8A6"/><rect x="285" y="95" width="80" height="80" fill="#A3E635"/></g>
  <rect x="700" y="160" width="620" height="260" rx="12" fill="#111827" stroke="#263244"/><text x="730" y="205" fill="#F8FAFC" font-family="Segoe UI, Arial" font-size="24" font-weight="700">CAGR by Country</text><rect x="740" y="260" width="430" height="28" rx="7" fill="#34D399"/><rect x="740" y="320" width="360" height="28" rx="7" fill="#00E5FF"/><rect x="740" y="380" width="290" height="28" rx="7" fill="#F59E0B"/>
  <rect x="700" y="460" width="620" height="260" rx="12" fill="#111827" stroke="#263244"/><text x="730" y="505" fill="#F8FAFC" font-family="Segoe UI, Arial" font-size="24" font-weight="700">BEV vs PHEV Trend</text><polyline points="750,650 840,620 930,570 1020,510 1110,485 1230,430" fill="none" stroke="#00E5FF" stroke-width="6"/><polyline points="750,675 840,660 930,635 1020,600 1110,580 1230,545" fill="none" stroke="#34D399" stroke-width="6"/>
</svg>
