<svg xmlns="http://www.w3.org/2000/svg" width="1400" height="820" viewBox="0 0 1400 820">
  <rect width="1400" height="820" fill="#0B0F14"/><text x="70" y="86" fill="#F8FAFC" font-family="Segoe UI, Arial" font-size="36" font-weight="700">Manufacturer &amp; Model Performance</text><text x="70" y="120" fill="#94A3B8" font-family="Segoe UI, Arial" font-size="17">Market share, ranking, revenue contribution, and model mix</text>
  <rect x="70" y="160" width="360" height="560" rx="12" fill="#111827" stroke="#263244"/><text x="100" y="205" fill="#F8FAFC" font-family="Segoe UI, Arial" font-size="24" font-weight="700">Market Share</text><circle cx="250" cy="420" r="120" fill="none" stroke="#00E5FF" stroke-width="42" stroke-dasharray="330 754"/><circle cx="250" cy="420" r="120" fill="none" stroke="#34D399" stroke-width="42" stroke-dasharray="210 754" transform="rotate(150 250 420)"/><text x="205" y="430" fill="#F8FAFC" font-family="Segoe UI, Arial" font-size="28" font-weight="700">Share</text>
  <rect x="470" y="160" width="390" height="560" rx="12" fill="#111827" stroke="#263244"/><text x="500" y="205" fill="#F8FAFC" font-family="Segoe UI, Arial" font-size="24" font-weight="700">Manufacturer Ranking</text><rect x="510" y="270" width="285" height="30" rx="7" fill="#00E5FF"/><rect x="510" y="340" width="230" height="30" rx="7" fill="#34D399"/><rect x="510" y="410" width="180" height="30" rx="7" fill="#F59E0B"/><rect x="510" y="480" width="135" height="30" rx="7" fill="#64748B"/>
  <rect x="900" y="160" width="420" height="560" rx="12" fill="#111827" stroke="#263244"/><text x="930" y="205" fill="#F8FAFC" font-family="Segoe UI, Arial" font-size="24" font-weight="700">Model Detail</text><text x="930" y="290" fill="#CBD5E1" font-family="Segoe UI, Arial" font-size="19">Model Y    Range 330    Rank 1</text><text x="930" y="355" fill="#CBD5E1" font-family="Segoe UI, Arial" font-size="19">Bolt EV    Range 259    Rank 2</text><text x="930" y="420" fill="#CBD5E1" font-family="Segoe UI, Arial" font-size="19">Leaf       Range 215    Rank 3</text>
</svg>
