<svg xmlns="http://www.w3.org/2000/svg" width="1400" height="820" viewBox="0 0 1400 820">
  <rect width="1400" height="820" fill="#0B0F14"/><text x="70" y="86" fill="#F8FAFC" font-family="Segoe UI, Arial" font-size="36" font-weight="700">Charging Infrastructure Dashboard</text><text x="70" y="120" fill="#94A3B8" font-family="Segoe UI, Arial" font-size="17">Charging points, coverage per 1,000 EVs, and infrastructure gap</text>
  <rect x="70" y="160" width="360" height="210" rx="12" fill="#151C26" stroke="#263244"/><text x="100" y="205" fill="#94A3B8" font-family="Segoe UI, Arial" font-size="16">Charging Coverage</text><text x="100" y="270" fill="#F8FAFC" font-family="Segoe UI, Arial" font-size="48" font-weight="700">31.4</text>
  <rect x="470" y="160" width="390" height="210" rx="12" fill="#151C26" stroke="#263244"/><text x="500" y="205" fill="#94A3B8" font-family="Segoe UI, Arial" font-size="16">Fast Charging Share</text><text x="500" y="270" fill="#34D399" font-family="Segoe UI, Arial" font-size="48" font-weight="700">42%</text>
  <rect x="900" y="160" width="420" height="210" rx="12" fill="#151C26" stroke="#263244"/><text x="930" y="205" fill="#94A3B8" font-family="Segoe UI, Arial" font-size="16">Infrastructure Gap</text><text x="930" y="270" fill="#F59E0B" font-family="Segoe UI, Arial" font-size="48" font-weight="700">High</text>
  <rect x="70" y="420" width="600" height="300" rx="12" fill="#111827" stroke="#263244"/><text x="100" y="465" fill="#F8FAFC" font-family="Segoe UI, Arial" font-size="24" font-weight="700">Charging Points by Country</text><rect x="110" y="530" width="440" height="28" rx="7" fill="#00E5FF"/><rect x="110" y="590" width="350" height="28" rx="7" fill="#34D399"/><rect x="110" y="650" width="250" height="28" rx="7" fill="#F59E0B"/>
  <rect x="710" y="420" width="610" height="300" rx="12" fill="#111827" stroke="#263244"/><text x="740" y="465" fill="#F8FAFC" font-family="Segoe UI, Arial" font-size="24" font-weight="700">EV Stock vs Charging Coverage</text><circle cx="840" cy="610" r="22" fill="#00E5FF"/><circle cx="990" cy="545" r="30" fill="#34D399"/><circle cx="1140" cy="600" r="38" fill="#F59E0B"/>
</svg>
