<svg xmlns="http://www.w3.org/2000/svg" width="1400" height="820" viewBox="0 0 1400 820">
  <rect width="1400" height="820" fill="#0B0F14"/><text x="70" y="86" fill="#F8FAFC" font-family="Segoe UI, Arial" font-size="36" font-weight="700">Forecasting &amp; Scenario Analysis</text><text x="70" y="120" fill="#94A3B8" font-family="Segoe UI, Arial" font-size="17">Historical growth, forecast scenarios, and market saturation signals</text>
  <rect x="70" y="160" width="800" height="560" rx="12" fill="#111827" stroke="#263244"/><text x="100" y="205" fill="#F8FAFC" font-family="Segoe UI, Arial" font-size="24" font-weight="700">EV Sales Forecast Through 2035</text><polyline points="120,640 220,610 320,560 420,500 520,430 620,350 720,280 830,210" fill="none" stroke="#00E5FF" stroke-width="6"/><polyline points="120,660 220,640 320,600 420,550 520,490 620,430 720,370 830,315" fill="none" stroke="#34D399" stroke-width="6"/><polyline points="120,680 220,660 320,635 420,600 520,560 620,520 720,480 830,440" fill="none" stroke="#F59E0B" stroke-width="6"/>
  <rect x="910" y="160" width="410" height="250" rx="12" fill="#151C26" stroke="#263244"/><text x="940" y="205" fill="#94A3B8" font-family="Segoe UI, Arial" font-size="17">Forecast Growth</text><text x="940" y="275" fill="#34D399" font-family="Segoe UI, Arial" font-size="50" font-weight="700">+18.6%</text>
  <rect x="910" y="450" width="410" height="270" rx="12" fill="#151C26" stroke="#263244"/><text x="940" y="495" fill="#F8FAFC" font-family="Segoe UI, Arial" font-size="24" font-weight="700">Scenario Lens</text><text x="940" y="555" fill="#CBD5E1" font-family="Segoe UI, Arial" font-size="18">Compare historical trend, stated policy, and accelerated adoption scenarios.</text>
</svg>
